<?xml version="1.0" encoding="utf-8"?>
<!-- Generator: Adobe Illustrator 23.0.4, SVG Export Plug-In . SVG Version: 6.00 Build 0)  -->
<svg version="1.1" id="Layer_1" xmlns="http://www.w3.org/2000/svg" xmlns:xlink="http://www.w3.org/1999/xlink" x="0px" y="0px"
	 viewBox="0 0 48 48" style="enable-background:new 0 0 48 48;" xml:space="preserve">
<style type="text/css">
	.st0{fill:#F6D2A2;}
	.st1{fill:#69D7E2;}
	.st2{fill:#FFFFFF;}
	.st3{fill:#231F20;}
</style>
<g>
	<path class="st0" d="M12,25.4c0.1,0.9,1.1,0.5,1.5,0.2c0.5-0.4,0.5-0.1,0.6-0.6c0-0.4,0.1-0.7,0.1-1.2c-0.7-0.1-1.4,0.1-1.9,0.5
		C12,24.6,11.4,25.1,12,25.4"/>
	<path class="st0" d="M31.8,37.6c0.7,0.5,2.2,1.9,1.1,2.6c-1.2,0.9-1.8-1.2-2.7-1.4C30.5,38.2,31.1,37.7,31.8,37.6L31.8,37.6
		L31.8,37.6z"/>
	<path class="st0" d="M18.2,39.3c-0.9,0.1-1.4,0.9-2.2,1.4c-0.7,0.5-0.9-0.1-1.1-0.2c-0.1-0.1-0.1,0.1-0.4-0.1
		c-0.7-1.1,0.7-1.8,1.4-2.3C17,37.7,17.7,38.6,18.2,39.3L18.2,39.3L18.2,39.3z"/>
	<path class="st0" d="M36.1,25.3c-0.1,0.9-1.1,0.5-1.5,0.2c-0.5-0.4-0.5-0.1-0.6-0.6c0-0.4-0.1-0.7-0.1-1.2c0.7-0.1,1.4,0.1,1.9,0.5
		C36.1,24.3,36.6,25,36.1,25.3"/>
	<path class="st1" d="M33.3,13.1c3.5-1.2,0.7-6-2.2-3.9c-2-1.8-4.7-2-7.6-2C20.7,7.5,18,8,16.3,9.6c-3-2-5.7,2.7-2.2,3.9
		c-0.9,3.9,0.1,7.7,0,11.6C14,28.5,13,33.2,15,36.3c1.6,2.7,5.3,3.6,8.2,3.7c3.7,0.1,8.3-0.7,10.2-4.4c1.8-3.5,1.3-7.7,1.1-11.4
		C34,20.6,34.4,16.7,33.3,13.1L33.3,13.1z"/>
	<path d="M36.2,24.7c-0.1-0.2-0.4-0.5-0.5-0.5c-0.5-0.4-1.1-0.5-1.5-0.5c0-0.6-0.1-1.3-0.1-2.1v-0.7c0-2.5-0.1-3.5-0.1-4.7
		c-0.1-1.1-0.4-2-0.5-2.8c0.7-0.4,1.3-0.8,1.5-1.4s0.1-1.3-0.2-1.9c-0.4-0.6-0.9-1.1-1.5-1.2c-0.7-0.1-1.4-0.1-2.1,0.5
		C30.6,9,29.8,8.6,29,8.2c-1.4-0.5-3.2-0.7-5.4-0.7v0.1V7.2c-2.5,0.2-4.2,0.6-5.7,1.3c-0.6,0.4-1.2,0.7-1.5,1.1
		C15.7,9,15,9,14.2,9.1c-0.7,0.2-1.2,0.7-1.5,1.3c-0.4,0.6-0.5,1.3-0.2,1.9s0.7,1.1,1.5,1.4c-0.2,0.9-0.4,2-0.4,3.2s0,2,0.2,4.1
		c0.1,1.5,0.1,2.2,0.2,3c-0.7,0-1.4,0.1-1.8,0.5c-0.1,0.1-0.4,0.4-0.5,0.5c-0.1,0.4-0.1,0.5,0.1,0.7c0.1,0.5,0.4,0.7,0.7,0.7
		s0.7-0.1,0.9-0.4c0.1-0.1,0.1-0.1,0.2-0.1H14h0.1c0,0,0.1,0,0.1-0.1c0,0.5-0.1,0.9-0.1,2C14,28.9,14,29.6,14,30.3
		c-0.1,2.8,0.2,4.8,1.2,6.4c0.4,0.5,0.7,0.9,1.2,1.4c-0.1,0.1-0.5,0.4-0.6,0.5c-0.4,0.4-0.7,0.6-0.8,0.8c-0.2,0.4-0.2,0.7,0,1.2l0,0
		l0,0c0.1,0.1,0.1,0.1,0.2,0.1l0,0l0,0l0,0c0,0,0,0,0,0.1s0.1,0.1,0.1,0.1c0.2,0.4,0.6,0.4,1.1,0.1c0.2-0.1,0.5-0.4,0.7-0.6l0,0
		c0.6-0.5,0.9-0.7,1.4-0.7h0.1c0.1,0,0.1,0.1,0.1,0.1c1.4,0.5,3,0.8,4.6,0.9c2.1,0.1,4.1-0.1,5.7-0.8c0.5-0.1,0.9-0.4,1.3-0.6
		c0.2,0.1,0.5,0.4,0.9,0.7c0,0,0,0,0,0.1c0,0,0,0,0,0.1l0.1,0.1c0.4,0.4,0.5,0.5,0.7,0.7c0.4,0.1,0.6,0.1,0.9-0.2
		c0.5-0.4,0.6-0.9,0.2-1.5c-0.2-0.5-0.7-0.9-1.2-1.2c0.5-0.5,0.9-1.1,1.3-1.8c0.9-1.9,1.3-4.1,1.3-6.8c0-0.9-0.1-1.9-0.1-3.5v-0.1
		c0.1,0,0.1,0.1,0.1,0.1c0.4,0.2,0.7,0.4,0.9,0.4c0.4,0.1,0.7-0.1,0.7-0.7l0,0C36.4,25.3,36.5,25,36.2,24.7L36.2,24.7z M33.2,8.9
		c0.6,0.1,1.1,0.5,1.4,1.2c0.4,0.5,0.4,1.2,0.2,1.8c-0.1,0.6-0.7,1.1-1.4,1.3c-0.1-0.5-0.4-1.1-0.5-1.5c0.2-0.4,0.4-0.6,0.1-1.1
		s-0.6-0.5-0.9-0.4c-0.2-0.4-0.5-0.6-0.8-0.9C31.9,8.9,32.6,8.8,33.2,8.9L33.2,8.9z M12.7,12.2c-0.2-0.5-0.1-1.2,0.1-1.6
		c0.4-0.5,0.8-0.9,1.4-1.2s1.3-0.1,2,0.4c-0.4,0.4-0.7,0.7-0.9,1.2c-0.5-0.4-1.1-0.4-1.4,0.2s0.1,0.9,0.5,1.2c0,0.1-0.1,0.4-0.1,0.5
		s-0.1,0.5-0.2,0.7C13.3,13.1,12.9,12.6,12.7,12.2L12.7,12.2z M13.8,25.4C13.8,25.4,13.7,25.4,13.8,25.4c-0.1,0.1-0.1,0.1-0.1,0.1
		c-0.1,0-0.1,0.1-0.2,0.1c-0.4,0.2-0.6,0.4-0.8,0.4c-0.4,0-0.5-0.1-0.5-0.5c0.2-0.1,0.4-0.1,0.4-0.2l-0.1-0.1
		c-0.1,0.1-0.1,0.1-0.4,0.1l0,0l0,0C12,25.1,12,25,12,24.8c0.1-0.1,0.2-0.4,0.4-0.5c0.5-0.4,1.1-0.5,1.8-0.5c0,0.2,0,0.5,0,0.7v0.1
		c0,0.1,0,0.2,0,0.2l0,0C14,25.3,14,25.3,13.8,25.4L13.8,25.4z M16.8,40L16.8,40c-0.4,0.4-0.5,0.5-0.7,0.6c-0.4,0.2-0.6,0.1-0.8-0.1
		l-0.1-0.1c0,0,0,0,0-0.1l0,0c0-0.1,0.1-0.4,0.2-0.6l0,0c0.1-0.1,0.1-0.2,0.2-0.4l-0.1-0.1c-0.1,0.1-0.1,0.1-0.1,0.4l0,0
		c-0.1,0.2-0.2,0.4-0.4,0.6l0,0l0,0l0,0c0,0-0.1,0-0.1-0.1c-0.4-0.6-0.1-1.2,0.7-1.8c0.1-0.1,0.5-0.4,0.5-0.4h0.1
		c0.5,0.5,1.2,0.8,1.8,1.2l0,0l0,0C17.6,39.3,17.2,39.5,16.8,40L16.8,40z M33,38.9c0.4,0.5,0.4,0.9-0.1,1.2c0-0.1-0.1-0.1-0.1-0.2
		l0,0c-0.1-0.4-0.2-0.5-0.4-0.7l-0.1,0.1c0.1,0.1,0.2,0.4,0.4,0.6l0,0c0.1,0.1,0.1,0.2,0.1,0.4c-0.2,0.2-0.5,0.2-0.7,0.1
		c-0.2-0.1-0.4-0.4-0.7-0.6l-0.1-0.1c0,0,0,0,0-0.1c0,0,0,0,0-0.1c-0.4-0.5-0.6-0.7-0.8-0.7c0.5-0.4,1.1-0.7,1.4-1.1
		C32.3,38,32.7,38.4,33,38.9L33,38.9z M33.1,35.8c-0.8,1.6-2.3,2.8-4.3,3.6c-1.6,0.6-3.6,0.8-5.7,0.7c-3.5-0.1-6.5-1.4-8.1-3.6
		c-0.9-1.5-1.3-3.5-1.2-6.3c0-0.7,0.1-1.4,0.1-2.6c0.1-1.4,0.1-1.8,0.1-2.5c0-0.5,0-0.9,0-1.4c0-0.8-0.1-1.5-0.2-3
		c-0.1-2-0.2-2.9-0.2-4c0-1.4,0.2-2.7,0.6-3.9c0.7-2,2-3.4,3.7-4.2c1.4-0.7,3.3-1.1,5.6-1.3c2.2,0,3.9,0.2,5.4,0.7
		c1.8,0.6,3,1.8,3.9,3.5c0.5,1.4,0.9,2.8,1.1,4.6c0.1,1.3,0.1,2.3,0.1,4.7v0.8c0,1.2,0,2,0.1,2.8c0,0.4,0,0.5,0.1,1.2
		c0.1,1.6,0.1,2.5,0.1,3.5C34.4,31.8,34,33.9,33.1,35.8L33.1,35.8z M36,25.3L36,25.3C36,25.3,36,25.1,36,25.3
		c-0.2-0.1-0.2-0.1-0.4-0.2l-0.1,0.1c0.1,0.1,0.1,0.1,0.4,0.2c-0.1,0.4-0.2,0.5-0.5,0.5c-0.2,0-0.6-0.1-0.8-0.4
		c-0.1-0.1-0.1-0.1-0.2-0.1l0,0c-0.1-0.5-0.1-0.7-0.1-0.9c0-0.1,0-0.4,0-0.5c0.5,0,1.1,0.1,1.5,0.5c0.1,0.1,0.4,0.4,0.4,0.5
		C36.2,25,36.2,25,36,25.3L36,25.3z"/>
	<g transform="translate(108.934905, 96.951015)">
		<path class="st2" d="M-83.9-79.7c0,0.5,0.1,1.1,0,1.5c-0.1,0.2-0.4,0.4-0.6,0.4c-0.4-0.1-0.6-0.2-0.7-0.5c-0.1-0.6,0-1.2,0.1-1.8
			c0,0,0.4,0,0.7,0.1C-84.2-79.9-83.9-79.7-83.9-79.7L-83.9-79.7z"/>
		<path class="st2" d="M-86.7-79.7c-0.4,1.1,0.4,2.7,1.4,1.4c-0.1-0.6,0-1.2,0.1-1.8C-85.1-80.2-86.5-79.7-86.7-79.7L-86.7-79.7z"/>
		<path d="M-83.7-79.2c0-0.4,0-0.4,0-0.5v-0.1h-0.1l-1.2-0.4v-0.1h-0.1l0,0l0,0l-1.4,0.4h-0.1v0.1c-0.2,0.5-0.1,1.3,0.1,1.8
			c0.4,0.5,0.8,0.5,1.4-0.1c0.1,0.4,0.5,0.5,0.7,0.5l0,0l0,0c0.1,0,0.1,0,0.1-0.1l0,0c0.4-0.1,0.4-0.1,0.5-0.4l0,0l0,0
			c0-0.1,0.1-0.4,0.1-0.5C-83.7-78.9-83.7-79-83.7-79.2L-83.7-79.2z M-85.3-79.6c0,0.1,0,0.2,0,0.4c0,0.4,0,0.6,0,0.9
			c-0.5,0.6-0.8,0.6-1.1,0.1c-0.2-0.4-0.4-1.2-0.1-1.5l1.2-0.4C-85.3-79.9-85.3-79.8-85.3-79.6L-85.3-79.6z M-84-78.2
			c-0.1,0.1-0.1,0.1-0.4,0.2l0,0c-0.1,0-0.1,0.1-0.1,0.1c-0.2-0.1-0.5-0.2-0.6-0.5c0-0.2,0-0.5,0-0.9c0-0.1,0-0.1,0-0.4
			c0-0.2,0-0.4,0-0.5l1.1,0.4c0,0.1,0,0.2,0,0.5c0,0.2,0,0.4,0,0.5C-84-78.5-84-78.3-84-78.2L-84-78.2z"/>
	</g>
	<g transform="translate(48.475508, 21.975564)">
		<path class="st2" d="M-32-8.9c0.9,3.5,6.4,2.6,6.2-0.9C-26-14-32.8-13.2-32-8.9"/>
		<path d="M-25.6-9.8c-0.1-0.9-0.5-1.8-1.3-2.2c-0.7-0.5-1.5-0.6-2.5-0.5c-0.8,0.1-1.6,0.5-2.2,1.2c-0.6,0.6-0.8,1.4-0.6,2.5h0.1
			h-0.1C-31.2-5.4-25.4-6.2-25.6-9.8L-25.6-9.8z M-31.9-8.9c-0.2-0.9,0-1.8,0.5-2.5c0.5-0.6,1.3-0.9,2-1.1c0.8-0.1,1.6,0.1,2.2,0.5
			c0.7,0.5,1.2,1.2,1.2,2.2C-25.6-6.4-31-5.6-31.9-8.9L-31.9-8.9z"/>
		<ellipse cx="-30.3" cy="-9.5" rx="0.9" ry="1.1"/>
		<ellipse class="st2" cx="-30" cy="-9.4" rx="0.2" ry="0.2"/>
	</g>
	<g transform="translate(129.617789, 18.097523)">
		<path class="st2" d="M-105.3-5.7c0.7,4,7.2,2.9,6.2-1.1C-99.9-10.4-105.5-9.4-105.3-5.7"/>
		<path d="M-99-6.9c-0.8-3.6-6.7-2.7-6.4,1.2l0,0c0.4,1.9,2,2.8,3.9,2.6c0.8-0.1,1.5-0.5,2.1-1.2C-99-5-98.7-5.8-99-6.9L-99-6.9z
			 M-99.7-4.4c-0.5,0.5-1.2,0.9-2,1.1c-1.8,0.4-3.3-0.6-3.6-2.5c-0.2-3.6,5.3-4.6,6.1-1.1C-99-5.8-99.2-5-99.7-4.4L-99.7-4.4z"/>
		<ellipse cx="-103.7" cy="-5.8" rx="0.9" ry="1.1"/>
		<ellipse class="st2" cx="-103.3" cy="-5.7" rx="0.2" ry="0.2"/>
	</g>
	<g transform="translate(99.536375, 70.451072)">
		<path class="st0" d="M-77-55.3c-0.7,0.1-1.4,0.9-0.9,1.6c0.5,0.9,1.8-0.1,2.5,0c0.8,0,1.5,0.9,2.2,0.1s-0.4-1.5-1.2-2L-77-55.3
			L-77-55.3z"/>
		<path class="st3" d="M-73.3-54.6c-0.2-0.4-0.7-0.6-1.2-0.8l0,0l0,0l-2.5,0.1c-0.8,0.1-1.5,1.1-1.1,1.8c0.1,0.4,0.4,0.5,0.7,0.5
			c0.2,0,0.5-0.1,0.8-0.1c0,0,0.1,0,0.1-0.1c0.5-0.1,0.7-0.2,0.9-0.1l0,0c0.2,0,0.5,0.1,0.8,0.2c0.4,0.1,0.5,0.2,0.7,0.2
			c0.4,0,0.5-0.1,0.7-0.4C-72.8-53.8-72.9-54.2-73.3-54.6L-73.3-54.6z M-73.4-53.4c-0.1,0.2-0.4,0.4-0.6,0.2c-0.1,0-0.4-0.1-0.7-0.2
			c-0.4-0.1-0.6-0.2-0.8-0.2s-0.5,0-0.9,0.2c-0.1,0-0.1,0-0.1,0.1c-0.7,0.2-1.1,0.2-1.3-0.2c-0.4-0.6,0.1-1.5,0.9-1.5l2.5-0.1
			c0.5,0.2,0.9,0.5,1.2,0.7C-73.1-54.1-73.1-53.8-73.4-53.4L-73.4-53.4z"/>
		<g transform="translate(11.953307, 0.000000)">
			<path d="M-86.3-55.6c-0.4-1.2-2.8-0.9-2.8,0.4C-88.9-54.4-86-54.6-86.3-55.6L-86.3-55.6z"/>
		</g>
	</g>
</g>
</svg>
