<?xml version="1.0" encoding="utf-8"?>
<!-- Generator: Adobe Illustrator 23.0.4, SVG Export Plug-In . SVG Version: 6.00 Build 0)  -->
<svg version="1.1" id="Layer_1" xmlns="http://www.w3.org/2000/svg" xmlns:xlink="http://www.w3.org/1999/xlink" x="0px" y="0px"
	 viewBox="0 0 40 40" style="enable-background:new 0 0 40 40;" xml:space="preserve">
<style type="text/css">
	.st0{fill-rule:evenodd;clip-rule:evenodd;fill:#3578A6;}
	.st1{fill-rule:evenodd;clip-rule:evenodd;fill:#FFFFFF;}
	.st2{fill-rule:evenodd;clip-rule:evenodd;fill:#E38D1A;}
</style>
<circle class="st0" cx="20" cy="20" r="20"/>
<g>
	<path class="st1" d="M5.3,27.4h1v-3.8l1.6,3.4c0.2,0.3,0.4,0.5,0.9,0.5c0.4,0,0.7-0.1,0.9-0.5l1.5-3.3v3.8h1v-3.9
		c0-0.3-0.1-0.5-0.4-0.6c-0.7-0.2-1.3-0.1-1.5,0.5l-1.5,3.3l-1.4-3.3c-0.2-0.5-0.7-0.7-1.5-0.5c-0.3,0.1-0.5,0.3-0.5,0.6L5.3,27.4
		L5.3,27.4z"/>
	<path class="st1" d="M12.9,24.2h1v2.1c0,0.1,0.1,0.3,0.6,0.3c0.3,0,2.1,0,2.1,0v-2.5h1v3.4c0,0.9-1,1-1.6,1h-3.1V28c0,0,3,0,3.1,0
		c0.6-0.1,0.5-0.3,0.5-0.5v-0.1h-2.1c-1,0-1.6-0.4-1.6-0.9C12.9,26.4,12.9,24.2,12.9,24.2L12.9,24.2z"/>
	<g>
		<path class="st1" d="M25.2,19.4c-0.6,0-1,0.1-1.5,0.2c-0.1,0.1-0.3,0.1-0.3,0.2c0.1,0.1,0.1,0.1,0.1,0.2c0.1,0.1,0.2,0.3,0.3,0.4
			c0.1,0.1,0.3,0.2,0.5,0.3c0.3,0.2,0.6,0.3,0.9,0.4c0.2,0.1,0.3,0.2,0.5,0.3c0.1,0.1,0.1,0.1,0.2,0.2l0,0c-0.1-0.1-0.1-0.1-0.1-0.2
			c-0.1-0.1-0.1-0.1-0.2-0.2c-0.2-0.3-0.5-0.5-0.7-0.7c-0.2-0.1-0.7-0.3-0.9-0.7l0,0c0.1,0,0.3-0.1,0.5-0.1c0.2-0.1,0.5-0.1,0.7-0.1
			c0.1-0.1,0.2-0.1,0.3-0.1v-0.1c-0.1-0.1-0.2-0.3-0.3-0.4c-0.3-0.3-0.8-0.6-1.2-0.9c-0.2-0.1-0.5-0.2-0.7-0.3
			c-0.1-0.1-0.2-0.1-0.3-0.1c-0.1-0.1-0.2-0.3-0.3-0.6c-0.2-0.4-0.4-0.9-0.6-1.3c-0.1-0.3-0.2-0.6-0.3-0.9c-0.7-1.3-1.6-2-2.9-2.8
			c-0.3-0.1-0.6-0.1-1-0.2c-0.2,0-0.3,0-0.6-0.1c-0.1-0.1-0.2-0.2-0.3-0.2c-0.4-0.3-1.5-0.9-1.8-0.1c-0.2,0.5,0.3,1,0.5,1.2
			c0.1,0.2,0.3,0.3,0.3,0.6c0.1,0.1,0.1,0.2,0.1,0.3c0.1,0.3,0.2,0.7,0.3,1c0.1,0.1,0.2,0.3,0.3,0.5c0.1,0.1,0.2,0.1,0.2,0.2
			c-0.1,0.1-0.1,0.3-0.2,0.6C16.6,17,16.7,18,17,18.7c0.1,0.2,0.3,0.6,0.7,0.4c0.3-0.1,0.2-0.6,0.3-0.9c0-0.1,0-0.1,0.1-0.2l0,0
			c0.1,0.2,0.2,0.3,0.3,0.6c0.2,0.3,0.6,0.7,1,1c0.2,0.1,0.3,0.3,0.5,0.4l0,0l0,0c-0.1-0.1-0.1-0.1-0.1-0.1
			c-0.1-0.1-0.3-0.3-0.3-0.4c-0.3-0.4-0.6-0.9-0.8-1.3c-0.1-0.2-0.2-0.5-0.3-0.7c-0.1-0.1-0.1-0.3-0.1-0.3c-0.1,0.2-0.3,0.3-0.3,0.5
			c-0.1,0.3-0.1,0.7-0.2,1.1c-0.1,0,0,0-0.1,0c-0.2-0.1-0.3-0.3-0.3-0.5c-0.2-0.5-0.2-1.4-0.1-2c0.1-0.1,0.3-0.6,0.2-0.8
			c-0.1-0.1-0.2-0.2-0.3-0.3c-0.1-0.1-0.2-0.3-0.3-0.5c-0.2-0.4-0.2-0.9-0.4-1.3c-0.1-0.2-0.2-0.3-0.3-0.6s-0.3-0.3-0.4-0.5
			c-0.1-0.1-0.1-0.2-0.1-0.3c0-0.1,0.1-0.1,0.1-0.1c0.1-0.1,0.3,0.1,0.5,0.1c0.3,0.1,0.5,0.2,0.7,0.3c0.1,0.1,0.2,0.2,0.3,0.2
			c0.1,0,0.1,0,0.1,0c0.2,0.1,0.5,0,0.7,0.1c0.3,0.1,0.7,0.3,1,0.5c1,0.6,1.8,1.5,2.3,2.6c0.1,0.2,0.1,0.3,0.2,0.5
			c0.1,0.3,0.3,0.7,0.5,1.1c0.1,0.3,0.3,0.7,0.5,1c0.1,0.1,0.6,0.2,0.7,0.3c0.1,0.1,0.3,0.1,0.5,0.2c0.2,0.1,0.5,0.3,0.7,0.5
			C24.7,19.1,25.2,19.3,25.2,19.4L25.2,19.4z"/>
		<path class="st1" d="M17.5,13c-0.1,0-0.2,0-0.3,0.1l0,0l0,0c0.1,0.1,0.1,0.2,0.2,0.3c0.1,0.1,0.1,0.2,0.1,0.3l0,0
			c0.1-0.1,0.2-0.2,0.2-0.3c-0.1-0.1-0.1-0.1-0.1-0.1C17.7,13.1,17.6,13.1,17.5,13L17.5,13z"/>
	</g>
	<path class="st2" d="M18.3,27.4h2.8c0.3,0,0.6-0.1,0.9-0.2c0.4-0.2,0.6-0.4,0.6-0.8v-0.7c0-0.3-0.2-0.5-0.7-0.7
		c-0.2-0.1-0.5-0.1-0.8-0.1H20c-0.3,0-0.6-0.1-0.6-0.3c0-0.1,0-0.1,0-0.1v-0.4c0-0.1,0-0.1,0-0.1c0.1-0.2,0.1-0.2,0.5-0.3
		c0.1,0,0.1,0,0.1,0h2.8v-0.6H20c-0.3,0-0.6,0.1-0.7,0.1c-0.7,0.2-0.9,0.5-0.9,1v0.6c0,0.4,0.5,0.8,1.3,0.9c0.1,0,0.2,0,0.3,0h1
		c0.1,0,0.1,0,0.1,0c0.3,0.1,0.4,0.1,0.5,0.2c0.1,0.1,0.1,0.1,0.1,0.2v0.6c0,0.1-0.1,0.1-0.1,0.2c-0.1,0.1-0.2,0.1-0.3,0.1
		c-0.1,0-0.1,0-0.1,0h-2.7v0.6H18.3z"/>
	<path class="st2" d="M28.6,26.2c0,0.7,0.5,1,1.5,1.1c0.1,0,0.2,0,0.3,0H33v-0.6h-2.6c-0.6,0-0.7-0.1-0.7-0.5v-3.4h-1V26.2
		L28.6,26.2z"/>
	<path class="st2" d="M23.2,26.2v-2.3c0-0.6,0.3-1,1.2-1c0.1,0,0.2,0,0.2,0h1.8c0.1,0,0.2,0,0.3,0c0.8,0.1,1.2,0.5,1.2,1v2.3
		c0,0.5-0.2,0.7-0.6,0.9l1,0.9h-1.1l-0.7-0.6h-0.7h-1c-0.2,0-0.3,0-0.6-0.1C23.5,27.2,23.2,26.8,23.2,26.2L23.2,26.2z M24.3,26.2
		C24.3,26.3,24.3,26.3,24.3,26.2c0.1,0.4,0.3,0.5,0.7,0.5h0.9L24.9,26H26l0.7,0.6c0.1-0.1,0.2-0.2,0.2-0.3c0-0.1,0-0.1,0-0.1v-2.3v0
		c-0.1-0.2-0.3-0.3-0.7-0.3h-1.5c-0.4,0-0.7,0.2-0.7,0.5v2.2L24.3,26.2L24.3,26.2z"/>
	<path class="st2" d="M33.4,27.4h0.1v-0.5h0.2v-0.1h-0.5v0.1h0.3L33.4,27.4L33.4,27.4z M34.5,27.4h0.1v-0.6h-0.2l-0.2,0.4L34,26.8
		h-0.2v0.6H34v-0.5l0,0l0.2,0.5h0.1l0.2-0.5l0,0V27.4L34.5,27.4z"/>
</g>
</svg>
