<svg xmlns="http://www.w3.org/2000/svg" xmlns:xlink="http://www.w3.org/1999/xlink" viewBox="0 0 100 116"><defs><style>.cls-1{isolation:isolate;}.cls-2{fill:url(#linear-gradient);}.cls-3{fill:#e6e8e5;opacity:0.5;}.cls-3,.cls-6,.cls-7,.cls-8,.cls-9{mix-blend-mode:multiply;}.cls-4{fill:url(#linear-gradient-2);}.cls-5{fill:url(#linear-gradient-3);}.cls-6{fill:url(#linear-gradient-4);}.cls-7{fill:url(#linear-gradient-5);}.cls-8{fill:url(#linear-gradient-6);}.cls-9{fill:url(#linear-gradient-7);}</style><linearGradient id="linear-gradient" x1="50" y1="92.94" x2="50" y2="1.19" gradientUnits="userSpaceOnUse"><stop offset="0" stop-color="#ceccce"/><stop offset="1" stop-color="#e6e8e5"/></linearGradient><linearGradient id="linear-gradient-2" x1="8.21" y1="47.06" x2="91.79" y2="47.06" xlink:href="#linear-gradient"/><linearGradient id="linear-gradient-3" x1="40.33" y1="104.14" x2="60.33" y2="104.14" xlink:href="#linear-gradient"/><linearGradient id="linear-gradient-4" x1="44.15" y1="109.31" x2="56.51" y2="109.31" xlink:href="#linear-gradient"/><linearGradient id="linear-gradient-5" x1="40.33" y1="104.33" x2="50.33" y2="104.33" xlink:href="#linear-gradient"/><linearGradient id="linear-gradient-6" x1="50.33" y1="99.93" x2="53.42" y2="99.93" xlink:href="#linear-gradient"/><linearGradient id="linear-gradient-7" x1="50.33" y1="104.33" x2="60.33" y2="104.33" xlink:href="#linear-gradient"/></defs><title>User</title><g class="cls-1"><g id="Layer_1" data-name="Layer 1"><path class="cls-2" d="M50,1.5A45.57,45.57,0,1,0,95.36,47.06,45.46,45.46,0,0,0,50,1.5Zm0,86.89A41.33,41.33,0,1,1,91.13,47.06,41.28,41.28,0,0,1,50,88.39Z"/><path class="cls-3" d="M50,2.2A44.87,44.87,0,1,0,94.66,47.06,44.81,44.81,0,0,0,50,2.2Zm0,86.19A41.33,41.33,0,1,1,91.13,47.06,41.28,41.28,0,0,1,50,88.39Z"/><path class="cls-4" d="M50,5.09a42,42,0,1,0,41.79,42A41.93,41.93,0,0,0,50,5.09Zm0,79.65A37.68,37.68,0,1,1,87.5,47.06,37.63,37.63,0,0,1,50,84.74Z"/><polygon class="cls-5" points="50.33 94.63 53.42 100.89 60.33 101.89 55.33 106.77 56.51 113.65 50.33 110.4 44.15 113.65 45.33 106.77 40.33 101.89 47.24 100.89 50.33 94.63"/><polygon class="cls-6" points="44.15 113.65 50.33 104.97 56.51 113.65 50.33 110.4 44.15 113.65"/><polygon class="cls-7" points="50.33 104.97 45.33 106.77 40.33 101.89 50.33 104.97"/><polygon class="cls-8" points="50.33 94.9 50.33 104.97 53.42 100.89 50.33 94.9"/><polygon class="cls-9" points="60.33 101.89 50.33 104.97 55.33 106.77 60.33 101.89"/></g></g></svg>